<svg xmlns="http://www.w3.org/2000/svg" width="608.745" height="485.195" viewBox="0 0 608.745 485.195">
  <g id="Headphones" transform="translate(-698.14 -330.38)">
    <path id="Path_1" data-name="Path 1" d="M1283.088,511.53l-12.37-9.361h-3.343s-3.239-6.208-9.372-4.823-5.341,0-5.341,0a25.622,25.622,0,0,0-11.87-1.385c-6.726.791-14.837,12.661-14.837,12.661s-2.374,6.331-2.374,8.111-3.363,5.737-6.924,15.826-1.385.2-8.9,19.387-13.208,34.916-13.208,34.916l-1.781,6.133s-1.583,11.474-3.561,15.035,0,16.42,0,16.42,6.528,6.529,10.485,8.111,1.583,1.385,1.583,1.385.1,4.352,6.482,6.133,10.136.989,10.136.989,2.967,1.583,3.957,1.978,24.135-1.187,25.916-2.967,4.9-4.55,4.9-4.55,4.992,4.748,8.751,2.572,11.87-5.935,13.452-9.891,7.742-9.5,8.223-14.442,8.938-14.639,10.768-28.883,1.632-5.737,1.632-5.737,6.33-16.222,6.726-18.6,2.967-10.881,3.165-16.618-5.144-7.32-4.946-7.913,4.154-28.883,3.759-36.2.652-51.813-10.337-70.844-24.362-49.378-75.8-76.639-101.585-19.288-101.585-19.288-41.149-.45-86.412,32.211-42.177,85.9-42.177,85.9-3.537,42.048,2.635,64.68,5.915,23.789,5.915,23.789,3.086,1.8,2.572,8.487-.257,22.117,1.8,27.518,7.458,30.347,19.546,47.063,15.173,17.488,15.173,17.488,7.973,5.4,12.345,4.115a11.986,11.986,0,0,1,7.458,0s2.057,2.829,3.6,2.572,6.429.514,7.973,0,2.057,6.172,3.343,11.316,9.516,19.288,9.516,21.089,3.727,11.122,2.7,13.179,8.483,6.62-6.433,22.05-29.832,15.431-29.832,15.431-28.227,2.506-48.286-6.752-16.2-7.2-16.2-7.2-15.688-8.23-28.032-14.916-24.432-14.145-33.433-15.173-11.337-1.405-11.337-1.405a27.584,27.584,0,0,1-3.2-6.543c-.761-2.891,1.674-17.044,0-20.7s-7.457-15.41-12.022-17.064S893.152,637,875.576,630s-35.229,0-35.229,0-34.734,8.75-41.43,16.358-11.87,4.261-24.348,15.978-25.675,24.62-28.684,27.963-11.116,13.416-18.374,18.8a49.573,49.573,0,0,1-14.164,7.375s-7.96,3.395-11.94,3.746,0,6.75,0,6.75,15.447-3.608,20.013-6.75,8.065-3.6,11.109-6.185,10.8-8.217,16.283-15.065A198.06,198.06,0,0,1,762.2,684.366s13.848-14.457,19.174-17.5-1.065-1.522,12.174-9.587S810.29,648.3,810.29,648.3s15.826-8.978,18.261-7.913,5.211-3.957,20.885-4.718,23.435,1.37,23.435,1.37,16.214,4.565,20.814,14,4.3,23.435,4.3,23.435L897.067,676a7.931,7.931,0,0,0-6.239,5.783c-1.217,5.022-16.435.762-20.7,2.588s-32.261,7-42.913,15.217-22.674,12.935-30.13,21.913S778.02,739.8,773.455,750.219s-6.2,5.033-6.555,17.91-.234,5.209,0,14.925,7.96,19.666,7.96,19.666,5.853,8.779,11.589,9.716,19.315,3.395,25.87,0,17.793-5.853,28.211-17.559,21.217-21.451,31.752-40.063,9.248-17.559,9.248-17.559l1.288-1.463s2.458.585,3.746-.7,5.736-8.428,9.6-21.187,2.107-7.023,2.107-7.023,3.043-1.288,3.043-2.926.585-5.853,1.171-6.672a19.027,19.027,0,0,0,1.4-3.395v-4.214s14.58,1.329,17.073,2.784,21.61,7.758,27.082,12.26,30.684,17.991,30.684,17.991,16.346,9.42,28.953,12.329,27.03,4.052,28.623,3.5,11.913-.416,12.329-.762,28.473-6.953,37.118-24.962,3.512-16.568,5.042-17.378,2.881,1.621,2.611-2.161-1.351-21.43-3.062-27.283-7.113-13.056-6.663-16.388,4.232-2.732,4.232-2.732,10.824,3.316,13.867-2.572-2.587-3.6,3.2-7.1,9.283-2.653,10.957-12.739.761-40.217-3.957-49.347-12.478-49.457-30.739-63-16.283-12.326-23.739-12.478-13.543.457-13.848,1.37-2.587,3.348-4.718,4.413-10.879,6.774-10.762,7.945-4.682,4.916-4.682,4.916-4.1,1.756-2.692,5.033a27.835,27.835,0,0,0,5.385,7.843c1.171,1.053-.82,3.746-2.692,2.224s-6.438,2.458-14.866-20.017-7.023-23.762-7.023-23.762-2.484-23.645-2.588-27.391,4.117-4.232,4.117-5.617,4.154-20.969,3.363-23.739-1.187-1.78,7.517-14.243,2.374-9.5,4.946-11.87,35.806-26.9,45.1-29.08,53.659-20.624,90.059-9.743,40.95,8.309,67.458,24.926,34.976,33.5,34.976,33.5l10.827,16.459s1.864,3.917,0,6.352a4.989,4.989,0,0,0,0,5.018c1.679,2.384,6.2,3.96,6.2,3.96s2.435,2.283,2.739,9.739,1.065,5.478,1.978,7.152,3.348,14.969,3.5,20.952a41.35,41.35,0,0,0,1.295,9.939A26.014,26.014,0,0,1,1283.088,511.53Z" fill="none" stroke="#7194db" stroke-width="4"/>
    <path id="Path_2" data-name="Path 2" d="M1296.432,1251.275s-31.5-.609-50.826,12.022-19.478,12.174-26.021,17.348-19.021,16.891-19.782,18.413-6.593,6.73-7.364,9.044-10.03,12.344-9.515,25.2,1.153,18.329,2.736,20.308,6.922,11.276,14.144,11.672,10.782,3.759,22.058-.989,19.387-7.913,28.289-18.2,20.376-25.322,24.926-33.234,9.3-14.287,9.159-15.119,1.385-3.117,0-4.5.138-8.312.693-9.42,6.58-14.441,7.688-18.805,4.571-11.013,4.294-12.606S1296.432,1251.275,1296.432,1251.275Z" transform="translate(-408 -561)" fill="none" stroke="#7194db" stroke-width="4"/>
    <path id="Path_3" data-name="Path 3" d="M1469.907,1149.813s.761,2.131,0,6.544-3.652,21.608-6.239,29.065-1.978,7.38-6.239,19.25-1.826,10.2-10.348,27.7-1.978,6.848-7.3,15.826-3.957,8.674-7.761,14.152-4.261,6.087-4.261,6.087" transform="translate(-179 -630)" fill="none" stroke="#7194db" stroke-width="4"/>
    <path id="Path_4" data-name="Path 4" d="M1537.167,490.929s-15.1-16.388-21.07-18.026-4.214,9.247-5.853,14.632-2.107,10.769-5.619,19.665-5,15.948-7.061,21.349-6.943,21.088-9.515,27.774-7.458,24.174-10.287,28.8-3.086,7.2-4.886,10.544-2.057,6.429-5.143,9-2.572,5.143-2.572,5.143v2.057" transform="translate(-246 29)" fill="none" stroke="#7194db" stroke-width="4"/>
    <path id="Path_6" data-name="Path 6" d="M1600.214,604.029s13.707-1,28.083-44.8,23.4-55.831,24.405-77.9,0-10.364,0-10.364" transform="translate(-398 29)" fill="none" stroke="#7194db" stroke-width="4"/>
    <path id="Path_7" data-name="Path 7" d="M1249.728,856.621s.869,6.954,5.65,11.3,36.508,49.546,35.2,84.749c-.411,11.089-5.325,22.863-5.342,24.773-.032,3.168,5.342-24.773,5.342-24.773s-3.477,23.469-6.519,24.773" transform="translate(-228 -332)" fill="none" stroke="#7194db" stroke-width="4"/>
    <path id="Path_8" data-name="Path 8" d="M1405.666,539.161a19.4,19.4,0,0,1,10.089,2.77c4.55,2.967,15.035,17.21,18.991,25.123s18.793,36.993,22.354,53.609,10.287,29.871,6.33,44.708-.629,10.88-2.211,12.265-6.3-1.187-6.493,0,3.561-19.782,0-33.432-15.232-54.6-22.552-67.259-.4-4.748-7.913-14.243-2.374-8.309-13.848-17.408-6.211-4.436-6.211-4.436Z" transform="translate(-368 -32)" fill="none" stroke="#7194db" stroke-width="4"/>
  </g>
</svg>
